<svg xmlns="http://www.w3.org/2000/svg" version="1.1" xmlns:xlink="http://www.w3.org/1999/xlink" xmlns:svgjs="http://svgjs.dev/svgjs" width="2000" height="2759" viewBox="0 0 2000 2759"><g transform="matrix(1,0,0,1,-1.4501005586591873,1.117004048582885)"><svg viewBox="0 0 179 247" data-background-color="#ffffff" preserveAspectRatio="xMidYMid meet" height="2759" width="2000" xmlns="http://www.w3.org/2000/svg" xmlns:xlink="http://www.w3.org/1999/xlink"><g id="tight-bounds" transform="matrix(1,0,0,1,0.1297840000000008,-0.09999999999999432)"><svg viewBox="0 0 178.740432 247.2" height="247.2" width="178.740432"><g><svg></svg></g><g><svg viewBox="0 0 178.740432 247.2" height="247.2" width="178.740432"><g transform="matrix(1,0,0,1,0,47.215199999999996)"><svg viewBox="0 0 178.740432 152.7696" height="152.7696" width="178.740432"><g><svg viewBox="0 0 178.740432 152.7696" height="152.7696" width="178.740432"><g><svg viewBox="0 0 178.740432 152.7696" height="152.7696" width="178.740432"><g id="textblocktransform"><svg viewBox="0 0 178.740432 152.7696" height="152.7696" width="178.740432" id="textblock"><g><svg viewBox="0 0 178.740432 152.7696" height="152.7696" width="178.740432"><g transform="matrix(1,0,0,1,0,0)"><svg width="178.740432" viewBox="1.9 -25 29.25 25" height="152.7696" data-palette-color="#6936f5"><path d="M14.7-7.25L14.7-6.25Q14.7-3.4 14.95 0L14.95 0 3.95 0Q1.9-7.95 1.9-16.9L1.9-16.9Q1.9-21.45 2.45-25L2.45-25 29.55-25Q31-19.35 31.15-11.55L31.15-11.55Q23.75-8.25 14.7-7.25L14.7-7.25ZM14.75-10.7L14.75-10.7Q17.95-11.1 20.1-12.3L20.1-12.3Q19.3-17.6 15.8-21.7L15.8-21.7Q15-16.75 14.75-10.7Z" opacity="1" transform="matrix(1,0,0,1,0,0)" fill="#6936f5" class="wordmark-text-0" data-fill-palette-color="primary" id="text-0"></path></svg></g></svg></g></svg></g></svg></g><g></g></svg></g></svg></g><path d="M0 41.215L0 1 178.74 1 178.74 41.215 164.964 41.215 164.964 14.777 13.777 14.777 13.777 41.215 0 41.215M0 205.985L0 246.2 178.74 246.2 178.74 205.985 164.964 205.985 164.964 232.423 13.777 232.423 13.777 205.985 0 205.985" fill="#6936f5" stroke="transparent" data-fill-palette-color="primary"></path></svg></g><defs></defs></svg><rect width="178.740432" height="247.2" fill="none" stroke="none" visibility="hidden"></rect></g></svg></g></svg>